<?xml version="1.0"?>
<svg version="1.1" xmlns="http://www.w3.org/2000/svg" width="400" height="50" style=""><path fill="#ff4000" d="M24.45,21.465l-5.355,0l-1.33,0l-0.875,0l0,24.535l0.875,0l1.33,0l5.355,0q5.11,0,8.75-3.57q3.745-3.675,3.745-8.925q0-4.97-3.745-8.54q-3.675-3.5-8.75-3.5z M24.45,43.795l-5.355,0l0-20.055l5.355,0q4.375,0,7.35,2.87q2.94,2.87,2.94,6.895q0,4.375-2.94,7.315q-2.975,2.975-7.35,2.975z M51.6044,21.5q-3.955,0-6.79,2.835q-2.87,2.87-2.87,6.825l0,5.285q0,3.885,2.87,6.755t6.79,2.87q3.955,0,6.825-2.87q2.835-2.835,2.835-6.755l0-5.285q0-3.99-2.835-6.825t-6.825-2.835z M59.0944,31.16l0,5.285q0,3.185-2.24,5.355q-2.205,2.1-5.25,2.1t-5.215-2.1q-2.24-2.17-2.24-5.355l0-5.285q0-2.94,2.24-5.25q2.24-2.24,5.215-2.24q2.94,0,5.25,2.24q2.24,2.31,2.24,5.25z M66.5788,46.07l17.115,0l0-1.785l-14.945,0l0-22.785l-2.17,0l0,24.57z M101.0482,21.5l-10.99,0l-2.17,0l0,24.605l2.17,0l0-12.32l10.99,0q2.66,0,4.41-1.75t1.75-4.375q0-2.38-1.75-4.235q-1.855-1.925-4.41-1.925z M101.0482,31.615l-10.99,0l0-7.945l10.99,0q1.61,0,2.835,1.155q1.155,1.225,1.155,2.835q0,1.645-1.155,2.8q-1.225,1.155-2.835,1.155z M130.7226,21.43l-2.205,0l0,11.2l-14.77,0l0-11.2l-2.205,0l0,24.57l2.205,0l0-11.165l14.77,0l0,11.165l2.205,0l0-24.57z M136.387,46.035l2.205,0l0-24.605l-2.205,0l0,24.605z M144.0114,46l2.17,0l0-14.84q0-2.94,2.24-5.25q2.24-2.24,5.18-2.24t5.25,2.24q2.24,2.31,2.24,5.25l0,14.84l2.17,0l0-14.84q0-3.99-2.835-6.825t-6.825-2.835q-3.92,0-6.755,2.835t-2.835,6.825l0,14.84z"/><path fill="#" d=""/></svg>
